<svg width="1863" height="628" viewBox="0 0 1863 628" fill="none" xmlns="http://www.w3.org/2000/svg">
<path d="M52.7236 297.654L1863.05 27.3257C1863.05 27.3257 1863.05 141.508 1863.05 320.101C1863.05 498.693 1863.05 603.116 1863.05 603.116L53.6995 335.715C53.6995 335.715 59.555 325.956 59.555 316.197C59.555 306.438 52.7236 297.654 52.7236 297.654Z" fill="#0B803E"/>
<path d="M53.7089 296.783L1863.05 29.2661" stroke="white" stroke-width="3.22802"/>
<line y1="-1.61639" x2="1827.44" y2="-1.61639" transform="matrix(-0.989288 -0.145979 0.0913465 -0.995819 1861.51 601.164)" stroke="white" stroke-width="3.23278"/>
<path d="M1802.36 37.1413C1802.36 37.1413 1846.48 120.604 1845.98 315.55C1845.48 510.496 1808.02 596.343 1808.02 596.343" stroke="white" stroke-width="2.92775"/>
<path d="M1648.67 58.922C1648.67 58.922 1692.72 135.743 1692.07 315.191C1691.41 494.64 1653.88 573.67 1653.88 573.67" stroke="white" stroke-width="2.92775"/>
<path d="M1486.91 83.1598C1486.91 83.1598 1530.9 153.058 1530.08 316.355C1529.26 479.652 1491.66 551.575 1491.66 551.575" stroke="white" stroke-width="2.92775"/>
<path d="M1325.13 105.282C1325.13 105.282 1369.05 167.944 1368.06 314.358C1367.07 460.773 1329.39 525.268 1329.39 525.268" stroke="white" stroke-width="2.92775"/>
<path d="M1163.4 131.595C1163.4 131.595 1207.23 186.706 1206.07 315.503C1204.9 444.3 1167.14 501.044 1167.14 501.044" stroke="white" stroke-width="2.92775"/>
<path d="M1008.24 155.785C1008.24 155.785 1045.02 203.68 1044.08 315.605C1043.14 427.53 1011.5 476.839 1011.5 476.839" stroke="white" stroke-width="2.92775"/>
<path d="M847.404 178.961C847.404 178.961 883.132 220.089 882.088 316.222C881.044 412.354 850.197 454.713 850.197 454.713" stroke="white" stroke-width="2.92775"/>
<path d="M686.799 204.194C686.799 204.194 721.245 237.933 720.095 316.823C718.946 395.712 689.091 430.482 689.091 430.482" stroke="white" stroke-width="2.92775"/>
<path d="M529.829 227.346C529.829 227.346 559.124 253.707 558.09 315.353C557.056 377 531.62 404.174 531.62 404.174" stroke="white" stroke-width="2.92775"/>
<path d="M373.264 248.577C373.264 248.577 396.995 268.967 396.134 316.657C395.272 364.348 374.65 385.372 374.65 385.372" stroke="white" stroke-width="2.92775"/>
<path d="M53.6991 296.725C53.6991 296.725 62.098 302.644 61.7618 316.493C61.4256 330.343 54.1015 336.451 54.1015 336.451" stroke="white" stroke-width="2.92775"/>
<path d="M1 335.715H52.7236C52.7236 335.715 60.5309 328.884 60.5309 316.197C60.5309 303.51 53.6995 297.654 53.6995 297.654H1V335.715Z" fill="#83BF4F" stroke="white" stroke-width="1.95183"/>
</svg>
