<svg width="430" height="283" viewBox="0 0 430 283" fill="none" xmlns="http://www.w3.org/2000/svg">
<g clip-path="url(#clip0_2929_40409)">
<rect x="-525" y="-22" width="955" height="322" fill="#0B803E"/>
<path d="M-497.5 130.5L430 -8C430 -8 430 50.5 430 142C430 233.5 430 287 430 287L-497 150C-497 150 -494 145 -494 140C-494 135 -497.5 130.5 -497.5 130.5Z" fill="#0B803E"/>
<path d="M-496.995 130.054L430 -7.00579" stroke="#82FF99" stroke-width="1.65384"/>
<line y1="-0.82814" x2="936.271" y2="-0.82814" transform="matrix(-0.989288 -0.145979 0.0913465 -0.995819 429.211 286)" stroke="#82FF99" stroke-width="1.65628"/>
<path d="M398.906 -2.97111C398.906 -2.97111 421.512 39.7901 421.257 139.669C421.002 239.547 401.808 283.53 401.808 283.53" stroke="#82FF99" stroke-width="1.5"/>
<path d="M320.165 8.18807C320.165 8.18807 342.737 47.5463 342.401 139.485C342.065 231.424 322.836 271.913 322.836 271.913" stroke="#82FF99" stroke-width="1.5"/>
<path d="M237.291 20.606C237.291 20.606 259.827 56.4174 259.407 140.081C258.988 223.744 239.722 260.593 239.722 260.593" stroke="#82FF99" stroke-width="1.5"/>
<path d="M154.405 31.94C154.405 31.94 176.903 64.0441 176.396 139.058C175.889 214.072 156.585 247.115 156.585 247.115" stroke="#82FF99" stroke-width="1.5"/>
<path d="M71.5419 45.4215C71.5419 45.4215 94.001 73.6569 93.4025 139.645C92.8039 205.632 73.459 234.704 73.459 234.704" stroke="#82FF99" stroke-width="1.5"/>
<path d="M-7.94958 57.8148C-7.94958 57.8148 10.8934 82.353 10.4118 139.697C9.93017 197.04 -6.28361 222.303 -6.28361 222.303" stroke="#82FF99" stroke-width="1.5"/>
</g>
<defs>
<clipPath id="clip0_2929_40409">
<rect width="430" height="283" fill="white"/>
</clipPath>
</defs>
</svg>
