<svg width="21" height="18" viewBox="0 0 21 18" fill="none" xmlns="http://www.w3.org/2000/svg">
<path d="M20.811 8.95791C20.811 8.51035 20.6332 8.08113 20.3168 7.76466C20.0003 7.4482 19.5711 7.27041 19.1235 7.27041L5.75851 7.27041L10.191 2.83791C10.4891 2.51801 10.6514 2.09491 10.6437 1.65773C10.6359 1.22056 10.4588 0.80344 10.1497 0.49426C9.84048 0.185081 9.42337 0.00797612 8.98619 0.000262821C8.54901 -0.00745048 8.12591 0.154829 7.80601 0.452909L0.493515 7.76541C0.177501 8.08181 -4.1479e-07 8.51072 -3.95242e-07 8.95791C-3.75695e-07 9.4051 0.177501 9.834 0.493515 10.1504L7.80601 17.4629C7.9605 17.6287 8.14681 17.7617 8.3538 17.8539C8.5608 17.9461 8.78426 17.9957 9.01084 17.9997C9.23742 18.0037 9.46249 17.9621 9.67261 17.8772C9.88273 17.7923 10.0736 17.666 10.2339 17.5057C10.3941 17.3455 10.5204 17.1546 10.6053 16.9445C10.6902 16.7344 10.7318 16.5093 10.7278 16.2827C10.7238 16.0561 10.6743 15.8327 10.582 15.6257C10.4898 15.4187 10.3568 15.2324 10.191 15.0779L5.75851 10.6454L19.1235 10.6454C20.055 10.6454 20.811 9.88941 20.811 8.95791Z" fill="white"/>
</svg>
