<svg width="66" height="68" viewBox="0 0 66 68" fill="none" xmlns="http://www.w3.org/2000/svg">
<ellipse cx="33" cy="33.5593" rx="33" ry="33.5593" fill="white"/>
<path fill-rule="evenodd" clip-rule="evenodd" d="M29.289 0.210925C15.6187 1.78222 4.51412 11.6253 0.807587 25.4562C-0.258184 29.4336 -0.271381 37.4603 0.781649 41.4913C1.20987 43.1319 2.49271 46.4112 3.63175 48.7782C5.3246 52.2967 6.38127 53.7711 9.4184 56.8541C17.0681 64.6192 26.5581 68.1326 36.459 66.8655C59.0896 63.9694 72.3126 40.4115 62.9705 19.6336C57.0418 6.44882 43.4107 -1.41176 29.289 0.210925ZM45.8817 17.6213C49.2884 18.9278 47.5327 23.5972 43.3069 24.4687C41.9126 24.7564 41.8143 24.9482 39.5194 31.8658C34.5159 46.9472 32.4312 50.1398 27.3085 50.568C22.6127 50.9608 19.9992 48.6883 19.9837 44.1988C19.9769 42.1126 20.204 41.327 21.1915 40.0214C23.4282 37.0642 26.7861 36.5971 26.7861 39.2431C26.7861 40.0503 26.3538 40.5423 25.1347 41.121C23.2079 42.036 22.5945 43.6656 23.4759 45.5292C23.9396 46.5094 24.4311 46.7994 25.8241 46.9146C26.7929 46.9949 28.17 46.8164 28.884 46.5186C30.362 45.9009 32.5873 42.756 33.5316 39.9494C35.1516 35.1345 38.3904 24.6596 38.3904 24.2351C38.3904 23.9753 37.0711 23.4981 35.4593 23.175C31.8701 22.4554 29.8437 22.9823 28.7024 24.9303C27.6489 26.7288 27.7176 27.4066 29.1229 29.0907C30.1504 30.3225 30.2496 30.6887 29.8155 31.6501C29.2276 32.9515 28.529 33.0566 27.1124 32.0557C24.6942 30.3482 24.1185 27.0101 25.6807 23.756C27.4205 20.1325 30.9359 18.9255 36.3426 20.0962L39.528 20.7855L41.1208 19.2624C43.3151 17.1643 44.0382 16.9146 45.8817 17.6213Z" fill="#0166C2"/>
</svg>
