<svg width="66" height="68" viewBox="0 0 66 68" fill="none" xmlns="http://www.w3.org/2000/svg">
<path fill-rule="evenodd" clip-rule="evenodd" d="M29.289 0.270251C15.6187 1.84154 4.51412 11.6846 0.807587 25.5155C-0.258184 29.4929 -0.271381 37.5196 0.781649 41.5506C1.20987 43.1912 2.49271 46.4705 3.63175 48.8376C5.3246 52.356 6.38127 53.8305 9.4184 56.9134C17.0681 64.6785 26.5581 68.1919 36.459 66.9249C59.0896 64.0287 72.3126 40.4708 62.9705 19.693C57.0418 6.50815 43.4107 -1.35244 29.289 0.270251ZM45.8817 17.6807C49.2884 18.9872 47.5327 23.6565 43.3069 24.528C41.9126 24.8157 41.8143 25.0075 39.5194 31.9251C34.5159 47.0065 32.4312 50.1991 27.3085 50.6273C22.6127 51.0201 19.9992 48.7476 19.9837 44.2582C19.9769 42.172 20.204 41.3863 21.1915 40.0807C23.4282 37.1236 26.7861 36.6564 26.7861 39.3024C26.7861 40.1096 26.3538 40.6016 25.1347 41.1803C23.2079 42.0953 22.5945 43.7249 23.4759 45.5885C23.9396 46.5687 24.4311 46.8588 25.8241 46.974C26.7929 47.0543 28.17 46.8758 28.884 46.5779C30.362 45.9602 32.5873 42.8154 33.5316 40.0087C35.1516 35.1939 38.3904 24.7189 38.3904 24.2944C38.3904 24.0347 37.0711 23.5574 35.4593 23.2343C31.8701 22.5148 29.8437 23.0416 28.7024 24.9896C27.6489 26.7881 27.7176 27.4659 29.1229 29.1501C30.1504 30.3818 30.2496 30.748 29.8155 31.7094C29.2276 33.0108 28.529 33.1159 27.1124 32.1151C24.6942 30.4075 24.1185 27.0694 25.6807 23.8153C27.4205 20.1918 30.9359 18.9849 36.3426 20.1555L39.528 20.8448L41.1208 19.3217C43.3151 17.2236 44.0382 16.9739 45.8817 17.6807Z" fill="#0166C2"/>
</svg>
