<svg width="28" height="28" viewBox="0 0 28 28" fill="none" xmlns="http://www.w3.org/2000/svg">
<g clip-path="url(#clip0_2026_20462)">
<path d="M26.25 2.62275L19.2439 2.62278V0.878906C19.2439 0.395469 18.8523 0.00390625 18.3689 0.00390625C17.8854 0.00390625 17.4939 0.395469 17.4939 0.878906V2.62234H10.4939V0.878906C10.4939 0.395469 10.1023 0.00390625 9.61888 0.00390625C9.13544 0.00390625 8.74388 0.395469 8.74388 0.878906V2.62234H1.75C0.783562 2.62234 0 3.40591 0 4.37234V26.2473C0 27.2138 0.783562 27.9973 1.75 27.9973H26.25C27.2164 27.9973 28 27.2138 28 26.2473V4.37234C28 3.40632 27.2164 2.62275 26.25 2.62275ZM26.25 26.2473H1.75V4.37234H8.74388V5.25391C8.74388 5.73732 9.13544 6.12891 9.61888 6.12891C10.1023 6.12891 10.4939 5.73732 10.4939 5.25391V4.37278H17.4939V5.25434C17.4939 5.73778 17.8854 6.12934 18.3689 6.12934C18.8523 6.12934 19.2439 5.73778 19.2439 5.25434V4.37278H26.25V26.2473ZM20.125 13.9978H21.875C22.358 13.9978 22.75 13.6058 22.75 13.1228V11.3728C22.75 10.8898 22.358 10.4978 21.875 10.4978H20.125C19.642 10.4978 19.25 10.8898 19.25 11.3728V13.1228C19.25 13.6058 19.642 13.9978 20.125 13.9978ZM20.125 20.9973H21.875C22.358 20.9973 22.75 20.6058 22.75 20.1223V18.3723C22.75 17.8893 22.358 17.4973 21.875 17.4973H20.125C19.642 17.4973 19.25 17.8893 19.25 18.3723V20.1223C19.25 20.6062 19.642 20.9973 20.125 20.9973ZM14.875 17.4973H13.125C12.642 17.4973 12.25 17.8893 12.25 18.3723V20.1223C12.25 20.6058 12.642 20.9973 13.125 20.9973H14.875C15.358 20.9973 15.75 20.6058 15.75 20.1223V18.3723C15.75 17.8898 15.358 17.4973 14.875 17.4973ZM14.875 10.4978H13.125C12.642 10.4978 12.25 10.8898 12.25 11.3728V13.1228C12.25 13.6058 12.642 13.9978 13.125 13.9978H14.875C15.358 13.9978 15.75 13.6058 15.75 13.1228V11.3728C15.75 10.8893 15.358 10.4978 14.875 10.4978ZM7.875 10.4978H6.125C5.642 10.4978 5.25 10.8898 5.25 11.3728V13.1228C5.25 13.6058 5.642 13.9978 6.125 13.9978H7.875C8.358 13.9978 8.75 13.6058 8.75 13.1228V11.3728C8.75 10.8893 8.358 10.4978 7.875 10.4978ZM7.875 17.4973H6.125C5.642 17.4973 5.25 17.8893 5.25 18.3723V20.1223C5.25 20.6058 5.642 20.9973 6.125 20.9973H7.875C8.358 20.9973 8.75 20.6058 8.75 20.1223V18.3723C8.75 17.8898 8.358 17.4973 7.875 17.4973Z" fill="white"  fill="currentColor"/>
</g>
<defs>
<clipPath id="clip0_2026_20462">
<rect width="28" height="28" fill="white"/>
</clipPath>
</defs>
</svg>
