<svg width="24" height="24" viewBox="0 0 24 24" fill="none" xmlns="http://www.w3.org/2000/svg">
<path d="M17.5511 5.5304L5.53033 17.5512C5.24042 17.8411 5.24042 18.322 5.53033 18.6119C5.82024 18.9018 6.30108 18.9018 6.59099 18.6119L18.6118 6.59106C18.9017 6.30114 18.9017 5.82031 18.6118 5.5304C18.3219 5.24048 17.8411 5.24048 17.5511 5.5304Z" fill="#292D32"/>
<path d="M18.6117 17.5514L6.59088 5.53057C6.30096 5.24066 5.82013 5.24066 5.53022 5.53057C5.2403 5.82049 5.2403 6.30132 5.53022 6.59123L17.551 18.612C17.8409 18.902 18.3218 18.902 18.6117 18.612C18.9016 18.3221 18.9016 17.8413 18.6117 17.5514Z" fill="#292D32"/>
</svg>
