<svg width="32" height="32" viewBox="0 0 32 32" fill="none" xmlns="http://www.w3.org/2000/svg">
<path d="M21.3333 2.66675H10.6667C6 2.66675 4 5.33341 4 9.33342V22.6667C4 26.6667 6 29.3334 10.6667 29.3334H21.3333C26 29.3334 28 26.6667 28 22.6667V9.33342C28 5.33341 26 2.66675 21.3333 2.66675ZM10.6667 16.3334H16C16.5467 16.3334 17 16.7867 17 17.3334C17 17.8801 16.5467 18.3334 16 18.3334H10.6667C10.12 18.3334 9.66667 17.8801 9.66667 17.3334C9.66667 16.7867 10.12 16.3334 10.6667 16.3334ZM21.3333 23.6667H10.6667C10.12 23.6667 9.66667 23.2134 9.66667 22.6667C9.66667 22.1201 10.12 21.6667 10.6667 21.6667H21.3333C21.88 21.6667 22.3333 22.1201 22.3333 22.6667C22.3333 23.2134 21.88 23.6667 21.3333 23.6667ZM24.6667 12.3334H22C19.9733 12.3334 18.3333 10.6934 18.3333 8.66675V6.00008C18.3333 5.45341 18.7867 5.00008 19.3333 5.00008C19.88 5.00008 20.3333 5.45341 20.3333 6.00008V8.66675C20.3333 9.58675 21.08 10.3334 22 10.3334H24.6667C25.2133 10.3334 25.6667 10.7867 25.6667 11.3334C25.6667 11.8801 25.2133 12.3334 24.6667 12.3334Z" fill="#0166C2"/>
</svg>
