<svg width="38" height="37" viewBox="0 0 38 37" fill="none" xmlns="http://www.w3.org/2000/svg">
<path fill-rule="evenodd" clip-rule="evenodd" d="M19 6.12501C16.5525 6.12501 14.1599 6.85079 12.1248 8.21057C10.0898 9.57035 8.50363 11.5031 7.567 13.7643C6.63036 16.0255 6.3853 18.5137 6.86279 20.9142C7.34028 23.3148 8.51888 25.5198 10.2496 27.2504C11.9802 28.9811 14.1852 30.1597 16.5858 30.6372C18.9863 31.1147 21.4745 30.8696 23.7357 29.933C25.9969 28.9964 27.9296 27.4102 29.2894 25.3752C30.6492 23.3401 31.375 20.9475 31.375 18.5C31.3769 16.8743 31.0582 15.2643 30.437 13.762C29.8157 12.2597 28.9043 10.8947 27.7548 9.74522C26.6053 8.59571 25.2403 7.68425 23.738 7.06304C22.2357 6.44183 20.6256 6.12306 19 6.12501ZM28.0963 10.8131H23.8191L21.679 14.5203L23.8191 18.2274H28.0963L30.2364 14.5203L28.0963 10.8131ZM16.8631 7.01911H21.1402L23.2804 10.7262L21.1402 14.4334H16.8631L14.7229 10.7262L16.8631 7.01911ZM14.1842 10.8131H9.907L7.76687 14.5203L9.907 18.2274H14.1842L16.3243 14.5203L14.1842 10.8131ZM23.8191 26.1893H28.0963L30.2364 22.4822L28.0963 18.7751H23.8191L21.679 22.4822L23.8191 26.1893ZM21.1402 29.9805H16.8631L14.7229 26.2734L16.8631 22.5662H21.1402L23.2804 26.2734L21.1402 29.9805ZM9.907 26.1893H14.1842L16.3243 22.4822L14.1842 18.7751H9.907L7.76687 22.4822L9.907 26.1893Z" fill="#2F4987"/>
<circle cx="19" cy="18.5" r="18" stroke="#2F4987"/>
</svg>
