<svg width="32" height="32" viewBox="0 0 32 32" fill="none" xmlns="http://www.w3.org/2000/svg">
<path d="M3.44007 25.3468L3.4134 25.3735C3.0534 24.5868 2.82673 23.6935 2.7334 22.7068C2.82673 23.6801 3.08007 24.5601 3.44007 25.3468Z" fill="#0166C2"/>
<path d="M12 13.8401C13.7526 13.8401 15.1733 12.4193 15.1733 10.6667C15.1733 8.91416 13.7526 7.49341 12 7.49341C10.2474 7.49341 8.82666 8.91416 8.82666 10.6667C8.82666 12.4193 10.2474 13.8401 12 13.8401Z" fill="#0166C2"/>
<path d="M21.5865 2.66675H10.4132C5.55984 2.66675 2.6665 5.56008 2.6665 10.4134V21.5867C2.6665 23.0401 2.91984 24.3067 3.41317 25.3734C4.55984 27.9067 7.01317 29.3334 10.4132 29.3334H21.5865C26.4398 29.3334 29.3332 26.4401 29.3332 21.5867V18.5334V10.4134C29.3332 5.56008 26.4398 2.66675 21.5865 2.66675ZM27.1598 16.6667C26.1198 15.7734 24.4398 15.7734 23.3998 16.6667L17.8532 21.4267C16.8132 22.3201 15.1332 22.3201 14.0932 21.4267L13.6398 21.0534C12.6932 20.2267 11.1865 20.1467 10.1198 20.8667L5.13317 24.2134C4.83984 23.4667 4.6665 22.6001 4.6665 21.5867V10.4134C4.6665 6.65341 6.65317 4.66675 10.4132 4.66675H21.5865C25.3465 4.66675 27.3332 6.65341 27.3332 10.4134V16.8134L27.1598 16.6667Z" fill="#0166C2"/>
</svg>
