<svg width="36" height="36" viewBox="0 0 36 36" fill="none" xmlns="http://www.w3.org/2000/svg">
<g clip-path="url(#clip0_2834_37733)">
<path d="M17.28 2C7.73636 2 0 9.7364 0 19.28C0 28.8236 7.73636 36.56 17.28 36.56C26.8236 36.56 34.56 28.8236 34.56 19.28C34.56 9.7364 26.8236 2 17.28 2Z" fill="#0166C2"/>
<path d="M20.9375 19.1875V23.5312C20.776 23.7448 20.5234 23.9792 20.1797 24.2344C19.8411 24.4844 19.3906 24.7005 18.8281 24.8828C18.2656 25.0651 17.5651 25.1562 16.7266 25.1562C16.013 25.1562 15.3594 25.0365 14.7656 24.7969C14.1719 24.5521 13.6589 24.1953 13.2266 23.7266C12.7995 23.2578 12.4688 22.6875 12.2344 22.0156C12 21.3385 11.8828 20.5677 11.8828 19.7031V18.9141C11.8828 18.0547 11.9896 17.2891 12.2031 16.6172C12.4219 15.9401 12.7344 15.3672 13.1406 14.8984C13.5469 14.4297 14.0365 14.0755 14.6094 13.8359C15.1875 13.5911 15.8411 13.4688 16.5703 13.4688C17.5026 13.4688 18.2734 13.625 18.8828 13.9375C19.4974 14.2448 19.9714 14.6719 20.3047 15.2188C20.638 15.7656 20.849 16.3906 20.9375 17.0938H19.0156C18.9531 16.6979 18.8307 16.3438 18.6484 16.0312C18.4714 15.7188 18.2161 15.474 17.8828 15.2969C17.5547 15.1146 17.1276 15.0234 16.6016 15.0234C16.1484 15.0234 15.75 15.1094 15.4062 15.2812C15.0625 15.4531 14.776 15.7057 14.5469 16.0391C14.3229 16.3724 14.1536 16.7786 14.0391 17.2578C13.9245 17.737 13.8672 18.2839 13.8672 18.8984V19.7031C13.8672 20.3281 13.9323 20.8828 14.0625 21.3672C14.1979 21.8516 14.3906 22.2604 14.6406 22.5938C14.8958 22.9271 15.2057 23.1797 15.5703 23.3516C15.9349 23.5182 16.3464 23.6016 16.8047 23.6016C17.2526 23.6016 17.6198 23.5651 17.9062 23.4922C18.1927 23.4141 18.4193 23.3229 18.5859 23.2188C18.7578 23.1094 18.8906 23.0052 18.9844 22.9062V20.6484H16.6172V19.1875H20.9375Z" fill="white"/>
</g>
<defs>
<clipPath id="clip0_2834_37733">
<rect width="36" height="36" fill="white"/>
</clipPath>
</defs>
</svg>
