<svg width="22" height="20" viewBox="0 0 22 20" fill="none" xmlns="http://www.w3.org/2000/svg">
<path fill-rule="evenodd" clip-rule="evenodd" d="M4.47572 2.47578C2.77814 3.23944 1.53488 5.05691 1.53488 7.22398C1.53488 9.43738 2.45581 11.144 3.77377 12.6069C4.86149 13.8118 6.1774 14.8112 7.46056 15.7844C7.76549 16.0161 8.06837 16.2469 8.36614 16.4776C8.90437 16.8957 9.38428 17.2614 9.84781 17.5283C10.3103 17.7943 10.6828 17.9162 11 17.9162C11.3172 17.9162 11.6897 17.7953 12.1522 17.5283C12.6157 17.2614 13.0956 16.8957 13.6339 16.4776C13.9306 16.2458 14.2345 16.0161 14.5394 15.7854C15.8226 14.8102 17.1385 13.8118 18.2262 12.6069C19.5452 11.144 20.4651 9.43738 20.4651 7.22398C20.4651 5.05792 19.2219 3.23944 17.5243 2.47578C15.8748 1.73328 13.6584 1.92974 11.5526 4.08471C11.481 4.15784 11.3951 4.216 11.3002 4.25573C11.2053 4.29546 11.1032 4.31594 11 4.31594C10.8968 4.31594 10.7947 4.29546 10.6998 4.25573C10.6049 4.216 10.519 4.15784 10.4474 4.08471C8.34158 1.92974 6.12521 1.73328 4.47572 2.47578ZM11 2.51205C8.63423 0.426594 5.98502 0.134429 3.83721 1.10059C1.57172 2.12317 0 4.49273 0 7.22498C0 9.90988 1.13581 11.9591 2.6267 13.6113C3.81981 14.9341 5.28 16.0413 6.57033 17.0186C6.86298 17.2402 7.14642 17.4558 7.41553 17.6654C7.94046 18.0724 8.50325 18.5056 9.07321 18.834C9.64316 19.1615 10.294 19.4284 11 19.4284C11.706 19.4284 12.3568 19.1615 12.9268 18.834C13.4978 18.5056 14.0595 18.0724 14.5845 17.6654C14.8647 17.4479 15.1465 17.2323 15.4297 17.0186C16.719 16.0413 18.1802 14.9331 19.3733 13.6113C20.8642 11.9591 22 9.90988 22 7.22498C22 4.49273 20.4293 2.12317 18.1628 1.1026C16.015 0.135436 13.3658 0.427602 11 2.51205Z" fill="#787E86"/>
</svg>
