<svg width="28" height="28" viewBox="0 0 28 28" fill="none"  xmlns="http://www.w3.org/2000/svg">
<path fill-rule="evenodd" clip-rule="evenodd" d="M5.69637 4.4239C3.53581 5.39583 1.95349 7.70898 1.95349 10.4671C1.95349 13.2841 3.12558 15.4562 4.80298 17.318C6.18735 18.8516 7.86214 20.1235 9.49526 21.3622C9.88335 21.6571 10.2688 21.9507 10.6478 22.2443C11.3328 22.7765 11.9436 23.2419 12.5336 23.5817C13.1222 23.9202 13.5963 24.0754 14 24.0754C14.4037 24.0754 14.8778 23.9215 15.4664 23.5817C16.0564 23.2419 16.6672 22.7765 17.3522 22.2443C17.7299 21.9494 18.1167 21.6571 18.5047 21.3635C20.1379 20.1223 21.8127 18.8516 23.197 17.318C24.8757 15.4562 26.0465 13.2841 26.0465 10.4671C26.0465 7.71026 24.4642 5.39583 22.3036 4.4239C20.2043 3.4789 17.3834 3.72893 14.7033 6.47162C14.6121 6.5647 14.5029 6.63873 14.3821 6.68929C14.2612 6.73986 14.1313 6.76592 14 6.76592C13.8687 6.76592 13.7388 6.73986 13.6179 6.68929C13.4971 6.63873 13.3879 6.5647 13.2967 6.47162C10.6166 3.72893 7.79572 3.4789 5.69637 4.4239ZM14 4.47006C10.989 1.81584 7.6173 1.444 4.88372 2.67366C2.00037 3.97512 0 6.99093 0 10.4683C0 13.8855 1.44558 16.4935 3.34307 18.5964C4.86158 20.28 6.72 21.6891 8.36223 22.9329C8.7347 23.215 9.09544 23.4894 9.43795 23.7561C10.106 24.2741 10.8223 24.8255 11.5477 25.2435C12.2731 25.6602 13.1014 26 14 26C14.8986 26 15.7269 25.6602 16.4523 25.2435C17.179 24.8255 17.894 24.2741 18.562 23.7561C18.9188 23.4794 19.2773 23.2049 19.6378 22.9329C21.2787 21.6891 23.1384 20.2787 24.6569 18.5964C26.5544 16.4935 28 13.8855 28 10.4683C28 6.99093 26.0009 3.97512 23.1163 2.67622C20.3827 1.44528 17.011 1.81713 14 4.47006Z" fill="currentColor" />
</svg>
