<svg width="28" height="28" viewBox="0 0 28 28" fill="none" xmlns="http://www.w3.org/2000/svg">
<path d="M28 26.5053C28 26.9017 27.8361 27.2819 27.5444 27.5622C27.2527 27.8425 26.857 28 26.4444 28H1.55556C1.143 28 0.747335 27.8425 0.455612 27.5622C0.163889 27.2819 3.74438e-07 26.9017 3.74438e-07 26.5053V10.7959C-0.000164086 10.5681 0.0538489 10.3433 0.157914 10.1386C0.261979 9.93398 0.413342 9.75488 0.600445 9.61503L13.0449 0.314927C13.318 0.110817 13.654 0 14 0C14.346 0 14.682 0.110817 14.9551 0.314927L27.3996 9.61503C27.5867 9.75488 27.738 9.93398 27.8421 10.1386C27.9462 10.3433 28.0002 10.5681 28 10.7959V26.5053Z" fill="white"  fill="currentColor"/>
</svg>
