<svg width="15" height="18" viewBox="0 0 15 18" fill="none" xmlns="http://www.w3.org/2000/svg">
<path d="M7.5 10.5C8.19036 10.5 8.75 9.82843 8.75 9C8.75 8.17157 8.19036 7.5 7.5 7.5C6.80964 7.5 6.25 8.17157 6.25 9C6.25 9.82843 6.80964 10.5 7.5 10.5Z" stroke="#D11312" stroke-width="1.5" stroke-linecap="round" stroke-linejoin="round"/>
<path d="M12.5 13.5C13.2875 12.2475 13.75 10.6875 13.75 9C13.75 7.3125 13.2875 5.7525 12.5 4.5" stroke="#D11312" stroke-width="1.5" stroke-linecap="round" stroke-linejoin="round"/>
<path d="M2.5 4.5C1.7125 5.7525 1.25 7.3125 1.25 9C1.25 10.6875 1.7125 12.2475 2.5 13.5" stroke="#D11312" stroke-width="1.5" stroke-linecap="round" stroke-linejoin="round"/>
<path d="M10.5 11.7001C10.9688 10.9501 11.25 10.0126 11.25 9.00005C11.25 7.98755 10.9688 7.05005 10.5 6.30005" stroke="#D11312" stroke-width="1.5" stroke-linecap="round" stroke-linejoin="round"/>
<path d="M4.50001 6.30005C4.03126 7.05005 3.75 7.98755 3.75 9.00005C3.75 10.0126 4.03126 10.9501 4.50001 11.7001" stroke="#D11312" stroke-width="1.5" stroke-linecap="round" stroke-linejoin="round"/>
</svg>
