<svg width="40" height="40" viewBox="0 0 40 40" fill="none" xmlns="http://www.w3.org/2000/svg">
<path fill-rule="evenodd" clip-rule="evenodd" d="M17.3475 0.125703C9.25076 1.06213 2.67365 6.92819 0.478323 15.1709C-0.152919 17.5412 -0.160735 22.3248 0.46296 24.7271C0.716589 25.7049 1.4764 27.6592 2.15103 29.0699C3.15369 31.1667 3.77954 32.0454 5.57839 33.8827C10.1092 38.5104 15.73 40.6043 21.5942 39.8492C34.998 38.1232 42.8298 24.0836 37.2966 11.7008C33.7851 3.84324 25.7116 -0.841354 17.3475 0.125703ZM27.1751 10.5016C29.1928 11.2802 28.153 14.063 25.6501 14.5823C24.8243 14.7538 24.766 14.8681 23.4068 18.9907C20.4433 27.9786 19.2086 29.8813 16.1745 30.1365C13.3932 30.3706 11.8453 29.0163 11.8361 26.3407C11.8321 25.0974 11.9665 24.6292 12.5514 23.8511C13.8762 22.0888 15.865 21.8104 15.865 23.3873C15.865 23.8684 15.609 24.1616 14.8869 24.5064C13.7457 25.0518 13.3824 26.0229 13.9045 27.1336C14.1791 27.7177 14.4702 27.8906 15.2953 27.9592C15.8691 28.0071 16.6847 27.9007 17.1076 27.7232C17.983 27.3551 19.301 25.4809 19.8603 23.8082C20.8198 20.9388 22.7381 14.6961 22.7381 14.4431C22.7381 14.2883 21.9567 14.0039 21.002 13.8114C18.8763 13.3825 17.676 13.6965 17 14.8575C16.3761 15.9293 16.4168 16.3332 17.2491 17.3369C17.8577 18.071 17.9165 18.2892 17.6593 18.8622C17.3111 19.6378 16.8974 19.7004 16.0583 19.1039C14.626 18.0863 14.2851 16.0969 15.2104 14.1576C16.2408 11.9981 18.3229 11.2789 21.5252 11.9765L23.4119 12.3873L24.3553 11.4796C25.655 10.2292 26.0832 10.0804 27.1751 10.5016Z" fill="white"/>
</svg>
