<svg width="20" height="20" viewBox="0 0 20 20" fill="none" xmlns="http://www.w3.org/2000/svg">
<path d="M4.50004 11.833H15.5V9.99967H4.50004V11.833ZM4.50004 9.08301H15.5V7.24967H4.50004V9.08301ZM4.50004 6.33301H15.5V4.49967H4.50004V6.33301ZM19.1667 19.1663L15.5 15.4997H2.66671C2.16254 15.4997 1.7311 15.3203 1.37237 14.9616C1.01365 14.6029 0.833985 14.1711 0.833374 13.6663V2.66634C0.833374 2.16217 1.01304 1.73073 1.37237 1.37201C1.73171 1.01329 2.16315 0.833619 2.66671 0.833008H17.3334C17.8375 0.833008 18.2693 1.01267 18.6286 1.37201C18.988 1.73134 19.1673 2.16279 19.1667 2.66634V19.1663ZM2.66671 13.6663H16.2792L17.3334 14.6976V2.66634H2.66671V13.6663Z" fill="#787E86"/>
</svg>
