<svg width="192" height="154" viewBox="0 0 192 154" fill="none" xmlns="http://www.w3.org/2000/svg">
<path d="M15 36.5H177C181.142 36.5 184.5 39.8579 184.5 44V128C184.5 132.142 181.142 135.5 177 135.5H15C10.8579 135.5 7.5 132.142 7.5 128V44C7.5 39.8579 10.8579 36.5 15 36.5Z" stroke="#DEDEDE"/>
<path d="M103 91.2321C104.333 90.4623 104.333 88.5377 103 87.7679L93.25 82.1388C91.9167 81.369 90.25 82.3312 90.25 83.8708V95.1292C90.25 96.6688 91.9167 97.631 93.25 96.8612L103 91.2321Z" fill="#D9D9D9"/>
<rect x="73.5" y="74.5" width="45" height="30" rx="7.5" stroke="#D9D9D9"/>
</svg>
