<svg width="22" height="22" viewBox="0 0 22 22" fill="none" xmlns="http://www.w3.org/2000/svg">
<path d="M16 2C13.9 2 12.05 3.10017 11 4.829C9.95 3.10017 8.1 2 6 2C2.7 2 0 4.829 0 8.28667C0 14.5209 11 20.86 11 20.86C11 20.86 22 14.5733 22 8.28667C22 4.829 19.3 2 16 2Z" fill="#F44336"/>
<path fill-rule="evenodd" clip-rule="evenodd" d="M4.47572 3.47481C2.77814 4.23847 1.53488 6.05594 1.53488 8.223C1.53488 10.4364 2.45581 12.1431 3.77377 13.6059C4.86149 14.8108 6.1774 15.8102 7.46056 16.7834C7.76549 17.0152 8.06837 17.2459 8.36614 17.4766C8.90437 17.8947 9.38428 18.2604 9.84781 18.5274C10.3103 18.7933 10.6828 18.9152 11 18.9152C11.3172 18.9152 11.6897 18.7944 12.1522 18.5274C12.6157 18.2604 13.0956 17.8947 13.6339 17.4766C13.9306 17.2449 14.2345 17.0152 14.5394 16.7845C15.8226 15.8092 17.1385 14.8108 18.2262 13.6059C19.5452 12.1431 20.4651 10.4364 20.4651 8.223C20.4651 6.05694 19.2219 4.23847 17.5243 3.47481C15.8748 2.7323 13.6584 2.92876 11.5526 5.08373C11.481 5.15686 11.3951 5.21503 11.3002 5.25476C11.2053 5.29449 11.1032 5.31496 11 5.31496C10.8968 5.31496 10.7947 5.29449 10.6998 5.25476C10.6049 5.21503 10.519 5.15686 10.4474 5.08373C8.34158 2.92876 6.12521 2.7323 4.47572 3.47481ZM11 3.51107C8.63423 1.42562 5.98502 1.13345 3.83721 2.09961C1.57172 3.12219 0 5.49176 0 8.22401C0 10.9089 1.13581 12.9581 2.6267 14.6103C3.81981 15.9331 5.28 17.0403 6.57033 18.0176C6.86298 18.2392 7.14642 18.4548 7.41553 18.6644C7.94046 19.0714 8.50325 19.5046 9.07321 19.833C9.64316 20.1605 10.294 20.4275 11 20.4275C11.706 20.4275 12.3568 20.1605 12.9268 19.833C13.4978 19.5046 14.0595 19.0714 14.5845 18.6644C14.8647 18.4469 15.1465 18.2313 15.4297 18.0176C16.719 17.0403 18.1802 15.9321 19.3733 14.6103C20.8642 12.9581 22 10.9089 22 8.22401C22 5.49176 20.4293 3.12219 18.1628 2.10163C16.015 1.13446 13.3658 1.42663 11 3.51107Z" fill="#F44336"/>
</svg>
