<svg width="40" height="40" viewBox="0 0 40 40" fill="none" xmlns="http://www.w3.org/2000/svg">
<path d="M5.97631 17.3571L17.643 5.6904C18.9447 4.38865 21.0553 4.38865 22.357 5.6904L34.0237 17.3571C34.6488 17.9822 35 18.83 35 19.7141V32.5C35 34.341 33.5076 35.8334 31.6667 35.8334H27.5C25.659 35.8334 24.1667 34.341 24.1667 32.5V27.5C24.1667 25.6591 22.6743 24.1667 20.8333 24.1667H19.1667C17.3257 24.1667 15.8333 25.6591 15.8333 27.5V32.5C15.8333 34.341 14.341 35.8334 12.5 35.8334H8.33333C6.49238 35.8334 5 34.341 5 32.5V19.7141C5 18.83 5.35119 17.9822 5.97631 17.3571Z" stroke="#F43636" stroke-width="2.5"/>
</svg>
