<svg width="10" height="18" viewBox="0 0 10 18" fill="none" xmlns="http://www.w3.org/2000/svg">
<path d="M0.616227 1.04469C0.381889 1.2791 0.250244 1.59699 0.250244 1.92844C0.250244 2.2599 0.381889 2.57778 0.616227 2.81219L6.80373 8.99969L0.616227 15.1872C0.38853 15.4229 0.262536 15.7387 0.265384 16.0664C0.268232 16.3942 0.399694 16.7077 0.631454 16.9395C0.863214 17.1712 1.17673 17.3027 1.50448 17.3055C1.83222 17.3084 2.14797 17.1824 2.38373 16.9547L9.45498 9.88344C9.68932 9.64903 9.82096 9.33115 9.82096 8.99969C9.82096 8.66824 9.68932 8.35035 9.45498 8.11594L2.38373 1.04469C2.14932 0.810355 1.83143 0.678711 1.49998 0.678711C1.16852 0.678711 0.850637 0.810355 0.616227 1.04469Z" fill="black"/>
</svg>
