<svg width="16" height="20" viewBox="0 0 16 20" fill="none" xmlns="http://www.w3.org/2000/svg">
<path d="M13 18.3337C12.3056 18.3337 11.7153 18.0906 11.2292 17.6045C10.7431 17.1184 10.5 16.5281 10.5 15.8337C10.5 15.7364 10.5069 15.6356 10.5208 15.5312C10.5347 15.4267 10.5556 15.3331 10.5833 15.2503L4.70833 11.8337C4.47222 12.042 4.20833 12.2053 3.91667 12.3237C3.625 12.442 3.31944 12.5009 3 12.5003C2.30556 12.5003 1.71528 12.2573 1.22917 11.7712C0.743056 11.285 0.5 10.6948 0.5 10.0003C0.5 9.30588 0.743056 8.7156 1.22917 8.22949C1.71528 7.74338 2.30556 7.50032 3 7.50032C3.31944 7.50032 3.625 7.55949 3.91667 7.67782C4.20833 7.79616 4.47222 7.95921 4.70833 8.16699L10.5833 4.75032C10.5556 4.66699 10.5347 4.57338 10.5208 4.46949C10.5069 4.3656 10.5 4.26477 10.5 4.16699C10.5 3.47255 10.7431 2.88227 11.2292 2.39616C11.7153 1.91005 12.3056 1.66699 13 1.66699C13.6944 1.66699 14.2847 1.91005 14.7708 2.39616C15.2569 2.88227 15.5 3.47255 15.5 4.16699C15.5 4.86144 15.2569 5.45171 14.7708 5.93782C14.2847 6.42394 13.6944 6.66699 13 6.66699C12.6806 6.66699 12.375 6.6081 12.0833 6.49032C11.7917 6.37255 11.5278 6.20921 11.2917 6.00032L5.41667 9.41699C5.44444 9.50032 5.46528 9.59421 5.47917 9.69866C5.49306 9.8031 5.5 9.90366 5.5 10.0003C5.5 10.0975 5.49306 10.1984 5.47917 10.3028C5.46528 10.4073 5.44444 10.5009 5.41667 10.5837L11.2917 14.0003C11.5278 13.792 11.7917 13.6289 12.0833 13.5112C12.375 13.3934 12.6806 13.3342 13 13.3337C13.6944 13.3337 14.2847 13.5767 14.7708 14.0628C15.2569 14.5489 15.5 15.1392 15.5 15.8337C15.5 16.5281 15.2569 17.1184 14.7708 17.6045C14.2847 18.0906 13.6944 18.3337 13 18.3337Z" fill="white"/>
</svg>
