<svg width="24" height="24" viewBox="0 0 24 24" fill="none" xmlns="http://www.w3.org/2000/svg">
<path d="M2.00977 12.05C2.00977 10.5 3.26977 9.22998 4.82977 9.22998C6.38977 9.22998 7.64977 10.49 7.64977 12.05C7.64977 13.61 6.38977 14.87 4.82977 14.87C3.26977 14.87 2.00977 13.61 2.00977 12.05Z" fill="#292D32"/>
<path d="M13.8701 5.04998C13.8701 3.49998 15.1301 2.22998 16.6901 2.22998C18.2501 2.22998 19.5101 3.48998 19.5101 5.04998C19.5101 6.60998 18.2501 7.86998 16.6901 7.86998C15.1301 7.86998 13.8701 6.59998 13.8701 5.04998Z" fill="#292D32"/>
<path d="M13.8701 18.9499C13.8701 17.3999 15.1301 16.1299 16.6901 16.1299C18.2501 16.1299 19.5101 17.3899 19.5101 18.9499C19.5101 20.5099 18.2501 21.7699 16.6901 21.7699C15.1301 21.7699 13.8701 20.5099 13.8701 18.9499Z" fill="#292D32"/>
<line y1="-1" x2="13.8924" y2="-1" transform="matrix(0.863779 -0.503871 -0.503871 -0.863779 4 11)" stroke="#292D32" stroke-width="2"/>
<line y1="-1" x2="13.8924" y2="-1" transform="matrix(0.863779 0.503871 0.503871 -0.863779 5 11)" stroke="#292D32" stroke-width="2"/>
</svg>
