<svg width="22" height="20" viewBox="0 0 22 20" fill="none" xmlns="http://www.w3.org/2000/svg">
<path d="M4.58329 8.25033V19.2503H0.916626V8.25033H4.58329ZM8.24996 19.2503C7.76373 19.2503 7.29741 19.0572 6.9536 18.7134C6.60978 18.3695 6.41663 17.9032 6.41663 17.417V8.25033C6.41663 7.74616 6.61829 7.28783 6.95746 6.95783L12.9891 0.916992L13.9608 1.88866C14.2083 2.13616 14.3641 2.47533 14.3641 2.85116L14.3366 3.14449L13.4658 7.33366H19.25C19.7362 7.33366 20.2025 7.52681 20.5463 7.87063C20.8901 8.21445 21.0833 8.68076 21.0833 9.16699V11.0003C21.0833 11.2387 21.0375 11.4587 20.955 11.6695L18.1866 18.132C17.9116 18.792 17.2608 19.2503 16.5 19.2503H8.24996ZM8.24996 17.417H16.5275L19.25 11.0003V9.16699H11.1925L12.2283 4.29033L8.24996 8.27782V17.417Z" fill="#787E86"/>
</svg>
