<svg width="33" height="35" viewBox="0 0 33 35" fill="none" xmlns="http://www.w3.org/2000/svg">
<line x1="23.4623" y1="0.190373" x2="9.46245" y2="34.1904" stroke="url(#paint0_linear_154_5998)"/>
<rect width="33" height="17" transform="translate(0 9)" fill="white"/>
<path d="M12.8379 20.2188L14.8477 13.4688H16.8047L13.834 22H12.5449L12.8379 20.2188ZM10.9863 13.4688L12.9902 20.2188L13.2949 22H11.9941L9.04102 13.4688H10.9863ZM22.163 19.7676C22.163 19.6152 22.1395 19.4785 22.0927 19.3574C22.0497 19.2324 21.9677 19.1191 21.8466 19.0176C21.7255 18.9121 21.5555 18.8086 21.3368 18.707C21.118 18.6055 20.8348 18.5 20.4872 18.3906C20.1005 18.2656 19.7333 18.125 19.3856 17.9688C19.0419 17.8125 18.7372 17.6309 18.4716 17.4238C18.2098 17.2129 18.0028 16.9688 17.8505 16.6914C17.702 16.4141 17.6278 16.0918 17.6278 15.7246C17.6278 15.3691 17.7059 15.0469 17.8622 14.7578C18.0184 14.4648 18.2372 14.2148 18.5184 14.0078C18.7997 13.7969 19.1317 13.6348 19.5145 13.5215C19.9012 13.4082 20.3251 13.3516 20.786 13.3516C21.4149 13.3516 21.9637 13.4648 22.4325 13.6914C22.9012 13.918 23.2645 14.2285 23.5223 14.623C23.7841 15.0176 23.9149 15.4688 23.9149 15.9766H22.1688C22.1688 15.7266 22.1161 15.5078 22.0106 15.3203C21.9091 15.1289 21.7528 14.9785 21.5419 14.8691C21.3348 14.7598 21.0731 14.7051 20.7567 14.7051C20.452 14.7051 20.1981 14.752 19.995 14.8457C19.7919 14.9355 19.6395 15.0586 19.538 15.2148C19.4364 15.3672 19.3856 15.5391 19.3856 15.7305C19.3856 15.875 19.4208 16.0059 19.4911 16.123C19.5653 16.2402 19.6747 16.3496 19.8192 16.4512C19.9637 16.5527 20.1415 16.6484 20.3524 16.7383C20.5634 16.8281 20.8075 16.916 21.0848 17.002C21.5497 17.1426 21.9579 17.3008 22.3095 17.4766C22.6649 17.6523 22.9618 17.8496 23.2001 18.0684C23.4384 18.2871 23.618 18.5352 23.7391 18.8125C23.8602 19.0898 23.9208 19.4043 23.9208 19.7559C23.9208 20.127 23.8485 20.459 23.704 20.752C23.5595 21.0449 23.3505 21.293 23.077 21.4961C22.8036 21.6992 22.4774 21.8535 22.0985 21.959C21.7196 22.0645 21.2958 22.1172 20.827 22.1172C20.4052 22.1172 19.9891 22.0625 19.579 21.9531C19.1688 21.8398 18.7958 21.6699 18.4598 21.4434C18.1278 21.2168 17.8622 20.9277 17.663 20.5762C17.4637 20.2246 17.3641 19.8086 17.3641 19.3281H19.1278C19.1278 19.5938 19.1688 19.8184 19.2509 20.002C19.3329 20.1855 19.4481 20.334 19.5966 20.4473C19.7489 20.5605 19.9286 20.6426 20.1356 20.6934C20.3466 20.7441 20.577 20.7695 20.827 20.7695C21.1317 20.7695 21.3817 20.7266 21.577 20.6406C21.7762 20.5547 21.9227 20.4355 22.0165 20.2832C22.1141 20.1309 22.163 19.959 22.163 19.7676Z" fill="black"/>
<defs>
<linearGradient id="paint0_linear_154_5998" x1="23.0461" y1="0.943256" x2="8.9364" y2="35.5076" gradientUnits="userSpaceOnUse">
<stop stop-color="white" stop-opacity="0"/>
<stop offset="0.239295" stop-color="#0166C2"/>
<stop offset="0.801885" stop-color="#0166C2"/>
<stop offset="1" stop-color="white" stop-opacity="0"/>
</linearGradient>
</defs>
</svg>
