<svg width="57" height="13" viewBox="0 0 57 13" fill="none" xmlns="http://www.w3.org/2000/svg">
<path d="M46.1529 0.5L43.1929 1.61294L42.8 3.28353L41.7506 3.33294L41.48 5.63412H42.44L41.9435 9.18706C41.6353 11.3965 42.0282 12.4365 43.9788 12.4365C45.1271 12.4365 46.12 12.0247 46.6494 11.7376L46.9906 9.62C46.5976 9.81529 45.9647 10.0671 45.5365 10.0671C44.9553 10.0671 44.8871 9.76118 45.0071 8.91882L45.4518 5.63412H47.4353C47.5059 5.14941 47.7435 3.57059 47.8118 3.28118H45.7765L46.1529 0.5ZM37.2612 2.85765C36.9906 2.86235 36.7059 2.88118 36.4118 2.91882C35.2984 3.04421 34.221 3.38974 33.2424 3.93529L33.8541 5.79177C34.4871 5.43882 35.3012 5.13294 36.1553 5.02471C37.4212 4.86941 37.9365 5.26 38.0141 5.90706C38.0471 6.16353 38.0235 6.37529 38.0023 6.58706L37.9694 6.71882C37.119 6.55343 36.2477 6.52484 35.3882 6.63412C34.1694 6.78235 33.1694 7.27647 32.5553 8.04588C32.3045 8.39322 32.128 8.78855 32.037 9.20716C31.9459 9.62578 31.9421 10.0587 32.0259 10.4788C32.3247 11.8506 33.3271 12.4553 34.8471 12.2671C35.9059 12.1376 36.7576 11.6318 37.3788 10.7847C37.369 11.0243 37.3454 11.2631 37.3082 11.5C37.2714 11.7319 37.2148 11.9602 37.1388 12.1824L40.0659 12.1847C40.0508 11.8986 40.05 11.612 40.0635 11.3259C40.1482 10.2459 40.3412 8.63647 40.6447 6.5C40.7003 6.03883 40.6987 5.57255 40.64 5.11176C40.4518 3.59647 39.1624 2.83176 37.2612 2.85765ZM52.64 3.00588C49.8306 3.00588 47.6824 5.51647 47.6824 8.51647C47.6824 10.7729 48.9812 12.5 51.5129 12.5C54.3365 12.5 56.4706 9.98941 56.4706 6.97059C56.4706 4.73529 55.2047 3.00588 52.64 3.00588ZM24.9294 3.10235C23.6635 3.10235 22.2941 4.19647 21.3529 6.01059C21.5929 4.82471 21.5412 3.47882 21.4729 3.19176C20.4718 3.36021 19.4597 3.45614 18.4447 3.47882C18.4757 4.45691 18.4182 5.4358 18.2729 6.40353L17.88 9.09765C17.7247 10.1565 17.5553 11.3776 17.3835 12.1494H20.5671C20.5835 11.6812 20.7035 10.9471 20.7882 10.3L21.0612 8.45059C21.2847 7.24824 22.2424 5.82941 22.9788 5.82941C23.4071 5.82941 23.3906 6.24353 23.2706 7.01529L22.9624 9.09765C22.8071 10.1565 22.6376 11.3776 22.4659 12.1494H25.6824C25.7012 11.6812 25.8024 10.9447 25.8894 10.3L26.1624 8.45059C26.3835 7.24588 27.3435 5.82941 28.0776 5.82941C28.5059 5.82941 28.4894 6.22471 28.4212 6.76118L27.6518 12.1494H30.5882L31.6188 6.01059C31.8424 4.48353 31.7224 3.10235 30.0282 3.10235C28.7976 3.10235 27.4635 4.14471 26.5224 5.88353C26.7271 4.44824 26.6071 3.10235 24.9294 3.10235ZM13.4471 3.12118C10.6776 3.12118 8.55294 5.59882 8.55294 8.56118C8.55294 10.7871 9.83765 12.4906 12.3365 12.4906C15.1247 12.4906 17.2306 10.0153 17.2306 7.03412C17.2306 4.82706 15.9788 3.12118 13.4471 3.12118ZM1.38588 3.33529C1.26824 4.25294 1.14588 5.16588 0.974118 5.99412C1.74588 5.97529 2.43059 5.95647 4.29412 5.95647L0.0352941 10.5682L0 12.2224C1.04471 12.1518 2.34588 12.1306 3.83529 12.1306C5.16706 12.1306 6.50353 12.1494 7.35765 12.2224C7.51059 11.1447 7.66353 10.4271 7.85176 9.54706C7.20471 9.58235 6.07529 9.60118 4.29412 9.60118L8.55294 4.96824L8.60706 3.33529C7.57882 3.38941 6.65412 3.40588 5.03059 3.40588C3.26824 3.40588 2.73647 3.38941 1.38588 3.33529ZM13.1224 5.51647C13.7224 5.51647 14.0824 6.05294 14.0824 7.16588C14.0824 8.78235 13.4329 10.1094 12.6094 10.1094C11.9953 10.1094 11.6353 9.55412 11.6353 8.45765C11.6353 6.82471 12.3012 5.51647 13.1224 5.51647ZM52.2494 5.51647C52.8471 5.51647 53.2071 6.05294 53.2071 7.16588C53.2071 8.78235 52.5576 10.1094 51.7365 10.1094C51.12 10.1094 50.76 9.55412 50.76 8.45765C50.76 6.82471 51.4282 5.51647 52.2494 5.51647ZM36.4941 8.00588C36.9788 7.99882 37.4423 8.06235 37.7882 8.14235L37.7576 8.42C37.5812 9.45529 36.84 10.4929 35.7624 10.6271C35.0329 10.7141 34.4024 10.2788 34.3318 9.70941C34.3085 9.53882 34.3203 9.36528 34.3664 9.19941C34.4126 9.03354 34.492 8.87882 34.6 8.74471C34.8753 8.37059 35.3906 8.11412 36.0094 8.03882C36.1718 8.01765 36.3341 8.00824 36.4941 8.00588Z" fill="black"/>
</svg>
